PathFileType	4	(X/Y/Z)	Patient4_TMGait_0pt6_01_right_39.trc.trc
DataRate	CameraRate	NumFrames	NumMarkers	Units	OrigDataRate	OrigDataStartFrame	OrigNumFrames
83.333333333333	83.333333333333	5	33	mm	83.333333333333	18	       141
Frame#	Time	Sacral			L.Shoulder			Chest			R.Shoulder			Neck			R.ASIS			L.ASIS			R.Thigh.Superior			R.Thigh.Lateral			R.Thigh.Inferior			R.Patella			L.Thigh.Superior			L.Thigh.Lateral			L.Thigh.Inferior			L.Patella			L.Shank.Superior			L.Shank.Lateral			L.Shank.Inferior			R.Shank.Superior			R.Shank.Lateral			R.Shank.Inferior			R.Heel			R.Midfoot.Superior			R.Midfoot.Lateral			R.Toe			L.Heel			L.Midfoot.Lateral			L.Midfoot.Superior			L.Toe			L.Elbow			L.Wrist			R.Elbow			R.Wrist			
		X1	Y1	Z1	X2	Y2	Z2	X3	Y3	Z3	X4	Y4	Z4	X5	Y5	Z5	X6	Y6	Z6	X7	Y7	Z7	X8	Y8	Z8	X9	Y9	Z9	X10	Y10	Z10	X11	Y11	Z11	X12	Y12	Z12	X13	Y13	Z13	X14	Y14	Z14	X15	Y15	Z15	X16	Y16	Z16	X17	Y17	Z17	X18	Y18	Z18	X19	Y19	Z19	X20	Y20	Z20	X21	Y21	Z21	X22	Y22	Z22	X23	Y23	Z23	X24	Y24	Z24	X25	Y25	Z25	X26	Y26	Z26	X27	Y27	Z27	X28	Y28	Z28	X29	Y29	Z29	X30	Y30	Z30	X31	Y31	Z31	X32	Y32	Z32	X33	Y33	Z33	

18	47.104000000000	740.014641547613	1004.673459920181	432.217845931486	923.536237506103	1442.918989818245	271.774555744699	1019.307879673470	1368.199132773152	432.530024071011	928.646985287515	1433.078432499878	605.386927152284	892.991560312345	1493.311484515233	428.157429566123	968.877788528306	942.714579579700	550.887179786915	956.861954790834	966.192566639692	276.429021855610	1050.390312638658	779.180678355017	511.205825087077	1021.929722375092	654.606809250069	585.757459289402	1105.212902797924	622.585299364172	497.605827021549	1144.964931278514	532.592030226815	513.918442506703	963.020493597495	733.657290186188	307.717784900615	847.127389268852	635.772354958198	250.471982924100	909.975045815007	544.989890994532	315.667889688782	896.142588121760	479.074384457864	327.459610958315	866.189162610759	411.495404634269	321.819099364439	767.379973554527	302.444154785346	278.590803329052	812.703367017209	190.596521704774	352.344531337023	1117.496963462631	442.658136410859	524.870010178888	1055.336655346180	335.582321046459	592.075394591855	1109.084445183108	242.404681185101	535.574056545692	993.904490642909	65.281843870687	510.848313364953	1162.028883223709	124.221691918600	546.043111499216	1078.859897761613	56.104310991585	583.396055141208	1283.978522753138	77.635544478038	572.527621837761	678.993016261152	38.849340558600	406.249092418809	747.217551617945	35.378600052786	320.871626566494	832.619504154173	95.889382432459	341.718435893140	958.658011673593	41.726770897745	304.961394673130	996.307004902964	1119.340215567206	110.192741152700	1251.131504544616	1080.955571278291	114.619775273665	770.111995966051	1125.665127957515	699.423402871865	712.954478314656	871.583078619111	709.014381820924	
19	47.116000000000	741.505993055863	1003.373493233970	432.891622763434	924.721387297062	1441.742319692334	272.876442025712	1020.123592161159	1367.138594024299	433.843494041757	929.030642729317	1432.092266158090	606.452788313767	893.530405881290	1492.103973019200	429.018975053067	969.996655095345	941.278352745541	552.218751790991	958.405567470874	964.919489669678	277.750762741099	1049.180064573257	775.099329721349	513.447379422522	1018.059468654070	650.873662401227	587.514773566573	1101.246981249622	618.023781775171	499.736531982310	1140.005135300593	529.226039541201	515.606666971546	962.291358720823	731.933710686646	308.582903133242	845.357252221027	635.139248135267	251.204620326946	907.217609878102	543.754340401961	316.315049917050	892.689491019802	477.807012230856	328.002018237511	862.100424847355	410.569750775828	322.262008510070	762.110355956222	302.511475281382	278.858448331559	806.411297568113	190.142265768628	352.453681385654	1114.660148648774	439.341325785743	526.343389750827	1055.058591153068	330.151700893906	592.631144903666	1111.824371641749	238.738204317616	535.818905407799	1001.869891044238	58.285733518250	509.568019679434	1168.300261920580	121.906341380366	545.898564916204	1086.711372261250	51.430838252204	582.536138065609	1291.496145362218	78.487927559618	572.794310984591	671.742470423387	38.820497234274	406.238628696619	739.965123112958	35.349956483625	320.885829864392	825.402081670767	95.818293467338	341.739401163182	951.384682982897	41.574260485139	304.968759294839	996.994196027603	1118.471600843886	110.787907469576	1251.994009947441	1083.595658676762	116.633038489593	770.804001544094	1124.498268205702	700.451517887398	714.137718330725	870.356117446924	710.524551879846	
20	47.128000000000	743.261978570658	1001.869071154688	433.824799546075	925.660986795195	1440.463466915577	274.066194557195	1020.875180852999	1366.103024152418	435.210603689274	929.326890941274	1430.976408549426	607.627829946024	893.916196007044	1490.806747717970	429.958788025534	971.411117941117	939.726666898842	553.605804450603	960.191849458263	963.579685911462	279.187331377903	1048.520130699403	771.021863596436	515.802283669044	1014.497797367511	647.103286919209	589.119010635819	1097.840855006459	613.522959378946	501.957361424920	1135.209118257885	525.527217501061	517.331250132999	961.997427190007	730.149659391966	309.514366323810	844.040315389915	634.431187281418	252.078197660908	904.967434791150	542.441247699341	317.067690594579	889.751706396272	476.389509344503	328.676733554424	858.449637321577	409.531939774943	322.804557718963	757.135147706103	302.597433802454	279.213772584301	800.249325192809	189.642164347158	352.595706895632	1111.419974605598	435.664466472341	527.744272702194	1053.251254117265	324.985115744148	592.765957795834	1112.350242626180	234.973773104836	535.874435755692	1006.133434246223	52.704873259757	507.868746765221	1171.259686460607	119.245084835645	545.555109228060	1090.558117470923	47.457406189303	581.409111303080	1295.045012793581	77.798502243378	573.022653796804	664.484901682725	38.793235469654	406.207152346278	732.730081081820	35.310416009149	320.897453959438	818.205643818623	95.753510120620	341.754546261884	944.138413262775	41.384216790742	304.965381831971	997.366030854661	1117.328071925123	111.595422505423	1252.451460782042	1085.087910647839	118.696107385352	772.285050076647	1122.667456122591	701.730953946040	716.825419522732	868.315005918988	712.215369258375	
21	47.140000000000	745.241037522114	1000.206356058920	435.016994579930	926.366771938361	1439.102474756803	275.348155992622	1021.582424817178	1365.113860773959	436.639202638334	929.556186832088	1429.756098986480	608.921908761181	894.188735217514	1489.445884658900	430.995390214091	973.091917064167	938.094738545137	555.055991337699	962.179436099930	962.192565422005	280.747416333839	1048.470510795926	767.058356864826	518.263014357006	1011.300716194896	643.381835820925	590.516713008283	1095.102932637476	609.202553369344	504.251135830405	1130.722118906314	521.626784739240	519.032743880383	962.161533028706	728.340622258321	310.509481583884	843.208197652871	633.660526759133	253.100264742626	903.283640715220	541.061685825726	317.922548040622	887.404457727888	474.812285174210	329.473061794931	855.280806249128	408.379027988335	323.447341452574	752.488829218586	302.726690500350	279.661343238311	794.232918132002	189.114280751885	352.769906937066	1107.949476139740	431.742312290883	529.009063954809	1050.166437363299	320.126917307338	592.520171446119	1110.900748139112	231.121554254217	535.724168527610	1006.898135880516	48.400874401186	505.875433935853	1171.181652532279	116.250846214575	544.996269935109	1090.695884993052	44.147862070779	580.110061497904	1295.016789808624	75.661577553162	573.177161042205	657.217497002537	38.808714972195	406.143854613209	725.515530654666	35.270259035184	320.901158162297	811.044201536592	95.699625377168	341.752791265431	936.928280529133	41.156668170133	304.945470745529	997.419404521224	1115.909295858370	112.626026333383	1252.532257604378	1085.422006681673	120.800378060979	774.516179471881	1120.244029062939	703.257466973803	720.972545395271	865.537521277346	714.071563349000	
22	47.152000000000	747.389672799129	998.457387558469	436.454459659189	926.868608778483	1437.697436722489	276.726882910512	1022.271639488167	1364.200214639035	438.138599850677	929.750978624119	1428.474787053974	610.343561062474	894.400357429909	1488.065218749589	432.147810422874	974.996820769576	936.437244861989	556.580204219439	964.312396405727	960.792891791915	282.437708772296	1049.040444576094	763.311088249240	520.815085507126	1008.508662959988	639.807305708851	591.685554418379	1093.081607727432	605.174067438185	506.586748223994	1126.667116411822	517.679689911824	520.645998816205	962.787375785266	726.560697420103	311.565586601399	842.885697417300	632.847291924230	254.273119236748	902.230301163036	539.639313605826	318.868783094446	885.734605857670	473.076899289658	330.361310755374	852.640942854377	407.118327150557	324.179955747544	748.208238586151	302.938616898054	280.199989540919	788.385807427529	188.591137175928	352.967532380534	1104.429778007533	427.724777659530	530.087325408561	1046.158685354468	315.644190162525	591.986340651035	1107.833641433111	227.247893856832	535.373117469700	1004.596057800605	45.210437627224	503.752914662339	1168.508653943213	113.021854729303	544.228016846835	1087.657329479118	41.478153378748	578.752813567625	1291.993926803286	72.350247464868	573.221798711254	649.941388262172	38.936255109641	406.036946957611	718.325227192941	35.252660655192	320.889995232093	803.940341106975	95.663463824420	341.717174902156	929.762728787853	40.894463206857	304.903645019467	997.147203143381	1114.230967986571	113.893473094399	1252.247761091139	1084.594795677888	122.939851684885	777.466059658200	1117.324364727305	705.011659153552	726.528073721079	862.132550824500	716.074781107867	
